<?xml version="1.0" encoding="UTF-8"?>
<!-- Generated by Pixelmator Pro 3.1.1 -->
<svg width="122" height="122" viewBox="0 0 122 122" xmlns="http://www.w3.org/2000/svg" xmlns:xlink="http://www.w3.org/1999/xlink">
    <g id="Group">
        <path id="Path" fill="#262626" fill-rule="evenodd" stroke="none" d="M 84.279999 114.450005 L 73.480003 114.450005 Z M 104.400002 43.07 L 85.610001 43.07 C 83.629997 43.07 80.879997 42.010002 79.580002 40.709999 C 78.279999 39.410004 77.489998 37.059998 77.489998 35.099998 L 77.489998 16.07 L 77.489998 16.07 L 27.83 16.07 C 27.67 16.07 27.540001 16.150002 27.459999 16.230003 C 27.32 16.32 27.280001 16.440002 27.280001 16.610001 L 27.280001 104.340004 C 27.280001 104.459999 27.370001 104.630005 27.440001 104.709999 C 27.530001 104.840004 27.700001 104.870003 27.82 104.870003 L 40.779999 104.870003 C 39.75 107.030006 38.990002 109.360001 38.549999 111.780006 L 25.700001 111.780006 C 24.24 111.780006 22.940001 111.200005 21.969999 110.230003 C 21.01 109.270004 20.43 107.970001 20.43 106.5 L 20.43 14.440002 C 20.43 12.980003 21.02 11.68 21.969999 10.709999 C 22.940001 9.739998 24.280001 9.160004 25.700001 9.160004 L 81.010002 9.160004 C 81.129997 9.120003 81.25 9.120003 81.379997 9.120003 C 81.959999 9.120003 82.559998 9.370003 82.970001 9.739998 L 83.050003 9.739998 C 83.139999 9.790001 83.18 9.830002 83.260002 9.900002 L 110.529999 37.5 C 110.989998 37.959999 111.330002 38.589996 111.330002 39.300003 C 111.330002 39.510002 111.290001 39.669998 111.25 39.900002 C 111.25 65.120003 111.25 81.289993 111.25 106.510002 C 111.25 107.970001 110.660004 109.280006 109.699997 110.240005 C 108.730003 111.200005 107.43 111.790001 105.970001 111.790001 L 92 111.790001 C 91.559998 109.360001 90.809998 107.040001 89.769997 104.880005 L 103.839996 104.880005 C 104 104.880005 104 104.790001 104.089996 104.720001 C 104.220001 104.630005 104.389999 104.459999 104.389999 104.350006 C 104.389999 80.899994 104.400002 66.510002 104.400002 43.07 L 104.400002 43.07 Z M 83.720001 34.550003 L 83.720001 17.239998 L 103.209999 36.980003 L 86.150002 36.980003 C 85.480003 36.980003 84.889999 36.690002 84.43 36.269997 C 84.010002 35.849998 83.720001 35.220001 83.720001 34.550003 L 83.720001 34.550003 L 83.720001 34.550003 Z"/>
        <path id="path1" fill="#0e373b" fill-rule="evenodd" stroke="none" d="M -4 47.629997 L 90.900002 47.629997 L 90.900002 90.339996 L -4 90.339996 L -4 47.629997 Z"/>
        <path id="path2" fill="#ffffff" stroke="none" d="M 14.07 57.739998 L 25.84 57.739998 C 28.4 57.739998 30.32 58.349998 31.59 59.559998 C 32.860001 60.779999 33.5 62.5 33.5 64.739998 C 33.5 67.040001 32.810001 68.839996 31.41 70.139999 C 30.02 71.440002 27.9 72.080002 25.040001 72.080002 L 21.17 72.080002 L 21.17 80.539993 L 14.06 80.539993 L 14.06 57.739998 L 14.07 57.739998 Z M 21.18 67.459999 L 22.91 67.459999 C 24.280001 67.459999 25.24 67.230003 25.780001 66.75 C 26.33 66.279999 26.610001 65.68 26.610001 64.940002 C 26.610001 64.220001 26.370001 63.610001 25.889999 63.120003 C 25.42 62.620003 24.51 62.370003 23.190001 62.370003 L 21.17 62.370003 L 21.17 67.459999 L 21.18 67.459999 Z M 36.990002 57.739998 L 47.5 57.739998 C 49.57 57.739998 51.25 58.020004 52.52 58.580002 C 53.790001 59.139999 54.84 59.940002 55.68 60.989998 C 56.509998 62.040001 57.110001 63.260002 57.490002 64.650002 C 57.860001 66.040001 58.049999 67.510002 58.049999 69.07 C 58.049999 71.509995 57.77 73.399994 57.209999 74.740005 C 56.66 76.080002 55.880001 77.209991 54.889999 78.119995 C 53.900002 79.029999 52.84 79.630005 51.709999 79.929993 C 50.16 80.339996 48.75 80.550003 47.490002 80.550003 L 36.990002 80.550003 L 36.990002 57.739998 L 36.990002 57.739998 Z M 44.060001 62.910004 L 44.060001 75.360001 L 45.790001 75.360001 C 47.27 75.360001 48.32 75.199997 48.950001 74.869995 C 49.57 74.550003 50.060001 73.970001 50.419998 73.160004 C 50.77 72.349998 50.950001 71.029999 50.950001 69.199997 C 50.950001 66.779999 50.560001 65.129997 49.77 64.239998 C 48.98 63.349998 47.66 62.900002 45.830002 62.900002 L 44.060001 62.900002 L 44.060001 62.910004 Z M 61.490002 57.739998 L 78.989998 57.739998 L 78.989998 62.639999 L 68.599998 62.639999 L 68.599998 66.620003 L 77.470001 66.620003 L 77.470001 71.220001 L 68.599998 71.220001 L 68.599998 80.539993 L 61.490002 80.539993 L 61.490002 57.739998 L 61.490002 57.739998 Z"/>
        <path id="XML" fill="#262626" fill-rule="evenodd" stroke="none" d="M 74.21109 102.044922 L 76.918121 102.044922 L 76.918121 112.670898 L 83.334137 112.670898 L 83.334137 115 L 74.21109 115 Z M 62.775467 115 L 60.253006 115 L 60.253006 102.044922 L 64.190506 102.044922 L 66.545975 112.231445 L 68.883865 102.044922 L 72.77742 102.044922 L 72.77742 115 L 70.254959 115 L 70.254959 106.237305 C 70.254959 105.985352 70.257889 105.632324 70.263748 105.178223 C 70.269608 104.724121 70.272537 104.374023 70.272537 104.12793 L 67.820389 115 L 65.192459 115 L 62.757889 104.12793 C 62.757889 104.374023 62.760818 104.724121 62.766678 105.178223 C 62.772537 105.632324 62.775467 105.985352 62.775467 106.237305 Z M 59.786133 115 L 56.499023 115 L 54.038086 110.587891 L 51.436523 115 L 48.290039 115 L 52.456055 108.399414 L 48.492188 102.044922 L 51.726563 102.044922 L 54.038086 106.254883 L 56.411133 102.044922 L 59.540039 102.044922 L 55.576172 108.293945 Z"/>
    </g>
</svg>
