<?xml version="1.0" encoding="UTF-8"?>
<!-- Generated by Pixelmator Pro 3.1.1 -->
<svg width="256" height="256" viewBox="0 0 256 256" xmlns="http://www.w3.org/2000/svg" xmlns:xlink="http://www.w3.org/1999/xlink">
    <g id="Group">
        <path id="Path" fill="#262626" fill-rule="evenodd" stroke="none" d="M 176.849838 240.157379 L 154.187546 240.157379 Z M 219.068863 90.376389 L 179.640656 90.376389 C 175.485901 90.376389 169.715408 88.15213 166.987549 85.424255 C 164.259674 82.696396 162.601959 77.765244 162.601959 73.652451 L 162.601959 33.720657 L 162.601959 33.720657 L 58.397377 33.720657 C 58.061638 33.720657 57.788853 33.888535 57.620983 34.056396 C 57.327213 34.245239 57.243279 34.497055 57.243279 34.853775 L 57.243279 218.942963 C 57.243279 219.194748 57.432133 219.551483 57.579018 219.719345 C 57.767872 219.992142 58.124592 220.055084 58.376392 220.055084 L 85.571144 220.055084 C 83.409836 224.587555 81.815086 229.476715 80.8918 234.554764 L 53.927872 234.554764 C 50.864262 234.554764 48.136395 233.337708 46.100983 231.302307 C 44.086559 229.287872 42.869511 226.559998 42.869511 223.475403 L 42.869511 30.300339 C 42.869511 27.236725 44.10754 24.50885 46.100983 22.473434 C 48.136395 20.438034 50.948196 19.220993 53.927872 19.220993 L 169.988205 19.220993 C 170.23999 19.137054 170.491806 19.137054 170.764587 19.137054 C 171.981644 19.137054 173.240646 19.661652 174.100983 20.438034 L 174.26886 20.438034 C 174.457703 20.542953 174.541641 20.626892 174.709518 20.773773 L 231.931793 78.688522 C 232.897049 79.653763 233.610489 80.975723 233.610489 82.465576 C 233.610489 82.906235 233.526566 83.241959 233.442627 83.724594 C 233.442627 136.645248 233.442627 170.575714 233.442627 223.496399 C 233.442627 226.559998 232.204605 229.308868 230.190155 231.323288 C 228.154755 233.337708 225.42688 234.575745 222.363281 234.575745 L 193.049179 234.575745 C 192.1259 229.476715 190.552124 224.608521 188.369827 220.07608 L 217.893768 220.07608 C 218.229507 220.07608 218.229507 219.887207 218.41835 219.740326 C 218.691147 219.551483 219.047867 219.194748 219.047867 218.963943 C 219.047867 169.757355 219.068863 139.561981 219.068863 90.376389 L 219.068863 90.376389 Z M 175.674759 72.498367 L 175.674759 36.175735 L 216.571808 77.597382 L 180.773773 77.597382 C 179.367874 77.597382 178.129837 76.988861 177.164597 76.107529 C 176.283279 75.226227 175.674759 73.904266 175.674759 72.498367 L 175.674759 72.498367 L 175.674759 72.498367 Z"/>
        <path id="path1" fill="#0e373b" fill-rule="evenodd" stroke="none" d="M -8.393442 99.944916 L 190.740982 99.944916 L 190.740982 189.565887 L -8.393442 189.565887 L -8.393442 99.944916 Z"/>
        <path id="path2" fill="#ffffff" stroke="none" d="M 29.523933 121.159332 L 54.221642 121.159332 C 59.593441 121.159332 63.622295 122.439346 66.287216 124.978363 C 68.952133 127.538361 70.295082 131.147537 70.295082 135.84787 C 70.295082 140.674103 68.847214 144.451141 65.909508 147.179016 C 62.992786 149.906891 58.544262 151.249832 52.542953 151.249832 L 44.422295 151.249832 L 44.422295 169.001953 L 29.502953 169.001953 L 29.502953 121.159332 L 29.523933 121.159332 Z M 44.443279 141.555405 L 48.073441 141.555405 C 50.948196 141.555405 52.962624 141.072784 54.095737 140.065582 C 55.249836 139.079346 55.837379 137.820328 55.837379 136.267548 C 55.837379 134.756714 55.333771 133.476715 54.326557 132.448532 C 53.340328 131.399353 51.43082 130.874756 48.660984 130.874756 L 44.422295 130.874756 L 44.422295 141.555405 L 44.443279 141.555405 Z M 77.618362 121.159332 L 99.672134 121.159332 C 104.015739 121.159332 107.540985 121.746887 110.205902 122.921967 C 112.870819 124.097046 115.074097 125.775742 116.836723 127.979019 C 118.578354 130.182297 119.837379 132.74231 120.634758 135.659027 C 121.411148 138.575745 121.809837 141.660339 121.809837 144.933777 C 121.809837 150.053772 121.222298 154.019669 120.047211 156.831482 C 118.893112 159.64328 117.256393 162.014404 115.179016 163.92392 C 113.101639 165.833435 110.87738 167.092468 108.506226 167.721954 C 105.253769 168.582291 102.295082 169.022949 99.651154 169.022949 L 77.618362 169.022949 L 77.618362 121.159332 L 77.618362 121.159332 Z M 92.453773 132.007874 L 92.453773 158.132462 L 96.083939 158.132462 C 99.189507 158.132462 101.392784 157.796722 102.714752 157.104248 C 104.015739 156.4328 105.043938 155.215729 105.799339 153.516068 C 106.533768 151.816391 106.911476 149.046555 106.911476 145.206558 C 106.911476 140.128525 106.093117 136.666229 104.43541 134.798676 C 102.777702 132.931152 100.007866 131.986877 96.16787 131.986877 L 92.453773 131.986877 L 92.453773 132.007874 Z M 129.028198 121.159332 L 165.749496 121.159332 L 165.749496 131.441315 L 143.94754 131.441315 L 143.94754 139.792786 L 162.559998 139.792786 L 162.559998 149.445251 L 143.94754 149.445251 L 143.94754 169.001953 L 129.028198 169.001953 L 129.028198 121.159332 L 129.028198 121.159332 Z"/>
        <path id="XML" fill="#262626" fill-rule="evenodd" stroke="none" d="M 155.721634 214.127045 L 161.401962 214.127045 L 161.401962 236.424179 L 174.865082 236.424179 L 174.865082 241.311478 L 155.721634 241.311478 Z M 131.725571 241.311478 L 126.432541 241.311478 L 126.432541 214.127045 L 134.694839 214.127045 L 139.637451 235.502045 L 144.543198 214.127045 L 152.713272 214.127045 L 152.713272 241.311478 L 147.420242 241.311478 L 147.420242 222.924179 C 147.420242 222.395493 147.426392 221.654724 147.43869 220.701843 C 147.450974 219.748962 147.457123 219.014343 147.457123 218.497955 L 142.31163 241.311478 L 136.797287 241.311478 L 131.68869 218.497955 C 131.68869 219.014343 131.694839 219.748962 131.707123 220.701843 C 131.719421 221.654724 131.725571 222.395493 131.725571 222.924179 Z M 125.452866 241.311478 L 118.555328 241.311478 L 113.391396 232.053284 L 107.932381 241.311478 L 101.329918 241.311478 L 110.071724 227.46106 L 101.754097 214.127045 L 108.540985 214.127045 L 113.391396 222.96106 L 118.370903 214.127045 L 124.936478 214.127045 L 116.618851 227.239746 Z"/>
    </g>
</svg>
